<mxfile host="app.diagrams.net" modified="2023-07-12T11:12:42.106Z" agent="Mozilla/5.0 (Windows NT 10.0; Win64; x64) AppleWebKit/537.36 (KHTML, like Gecko) Chrome/114.0.0.0 Safari/537.36" version="21.6.2" etag="LeraqHdMXZIwJOnPjPCx" type="github">
  <diagram name="페이지-1" id="tsWR-zvZsaAdd-m2Jg73">
    <mxGraphModel>
      <root>
        <mxCell id="0" />
        <mxCell id="1" parent="0" />
      </root>
    </mxGraphModel>
  </diagram>
</mxfile>
